<?xml version="1.0" encoding="UTF-8" standalone="no"?>
<!-- Created with Inkscape (http://www.inkscape.org/) -->

<svg
   xmlns:dc="http://purl.org/dc/elements/1.1/"
   xmlns:cc="http://creativecommons.org/ns#"
   xmlns:rdf="http://www.w3.org/1999/02/22-rdf-syntax-ns#"
   xmlns:svg="http://www.w3.org/2000/svg"
   xmlns="http://www.w3.org/2000/svg"
   version="1.2"
   width="556.25165"
   height="680.60681"
   id="svg2">
  <defs
     id="defs4" />
  <metadata
     id="metadata7">
    <rdf:RDF>
      <cc:Work
         rdf:about="">
        <dc:format>image/svg+xml</dc:format>
        <dc:type
           rdf:resource="http://purl.org/dc/dcmitype/StillImage" />
        <dc:title></dc:title>
      </cc:Work>
    </rdf:RDF>
  </metadata>
  <g
     transform="translate(-113.74835,-276.72653)"
     id="layer1">
    <path
       d="m 650,554.85236 a 258.12582,258.12582 0 1 1 -516.25165,0 258.12582,258.12582 0 1 1 516.25165,0 z"
       id="path2985"
       style="opacity:0.64197531;fill:#d45500;fill-opacity:0;stroke:#4796df;stroke-width:40;stroke-miterlimit:4;stroke-opacity:1;stroke-dasharray:none" />
    <g
       transform="matrix(3.674994,0,0,4.6151913,206.51667,413.91324)"
       id="g3850">
      <path
         d="M 92.427,17.571 C 70.58,27.783 75.895,29.818 59.203,33.86 c 0.621,1.767 0.639,3.313 1.607,5.894 14.625,-3.563 10.521,-7.906 39.627,-20.034 -1.248,-1.689 -4.91,-2.945 -8.01,-2.149 z"
         id="path3840" />
      <path
         d="m 92.081,15.546 c 2.444,-1.143 5.196,-2.363 8.356,-3.68 C 97.792,8.287 91.043,8.053 83.839,9.014 74.482,10.263 64.353,13.53 61.444,14.11 56.301,15.138 50.039,17.756 46.204,17.195 44.854,16.998 44.044,16.108 43.487,14.837 42.463,12.497 42.312,8.845 41.343,5.694 39.847,0.832 34.938,-0.618 30.59,0.224 27.798,0.765 26.663,2.328 21.8,2.795 13.469,1.678 0.438,1.488 0.438,1.488 c 4.769,1.963 16.036,3.599 20.336,4.628 4.301,1.029 5.103,7.855 5.891,14.072 0.91,7.183 2.107,15.252 7.25,22.266 5.143,7.013 11.284,7.763 16.032,7.646 2.608,-0.065 8.54,3.894 12.155,6.461 4.133,2.935 12.25,10.66 13.371,8.603 1.123,-2.058 -1.775,-3.927 -10.099,-15.147 -4.072,-5.49 -5.877,-8.91 -6.808,-11.383 -0.969,-2.578 -0.986,-4.127 -1.607,-5.893 17.408,-3.386 13.275,-6.982 35.122,-17.195 z"
         id="path3842" />
    </g>
    <flowRoot
       id="flowRoot3875"
       xml:space="preserve"
       style="font-size:72px;font-style:normal;font-variant:normal;font-weight:bold;font-stretch:normal;line-height:125%;letter-spacing:0px;word-spacing:0px;fill:#000000;fill-opacity:1;stroke:none;font-family:Karnivore;-inkscape-font-specification:Karnivore Bold"><flowRegion
         id="flowRegion3877"><rect
           width="559.69855"
           height="209.56749"
           x="115.00655"
           y="831.71997"
           id="rect3879"
           style="font-size:72px;font-style:normal;font-variant:normal;font-weight:bold;font-stretch:normal;font-family:Karnivore;-inkscape-font-specification:Karnivore Bold" /></flowRegion><flowPara
         id="flowPara3881"></flowPara></flowRoot>    <g
       transform="translate(47.706422,-4.259502)"
       id="flowRoot3883"
       style="font-size:40px;font-style:normal;font-variant:normal;font-weight:bold;font-stretch:normal;line-height:125%;letter-spacing:0px;word-spacing:0px;fill:#000000;fill-opacity:1;stroke:none;font-family:Karnivore Lite;-inkscape-font-specification:Karnivore Lite Bold">
      <g
         transform="translate(-12.051756,0)"
         id="g3900">
        <path
           d="m 220.08951,907.03286 0,44.8 -9.76,9.76 -100.96,0 0,-16.16 94.56,0 0,-31.84 -84.96,0 -9.6,-9.76 0,-44.8 9.6,-9.76 101.12,0 0,16.16 -94.56,0 0,31.84 84.8,0 9.76,9.76"
           id="path3892"
           style="font-size:160px;font-family:Karnivore Lite;-inkscape-font-specification:Karnivore Lite Bold" />
        <path
           d="m 348.08451,919.03286 0,42.56 -16.16,0 0,-48 -79.52,0 0,48 -16.16,0 0,-112.32 16.16,0 0,48 79.52,0 0,-48 16.16,0 0,42.56 -13.6,13.6 13.6,13.6"
           id="path3894"
           style="font-size:160px;font-family:Karnivore Lite;-inkscape-font-specification:Karnivore Lite Bold" />
        <path
           d="m 380.52951,897.27286 79.04,0 0,-31.84 -79.04,0 0,31.84 m 95.2,21.76 0,42.56 -16.16,0 0,-48 -79.04,0 0,48 -16.16,0 0,-112.32 101.76,0 9.6,9.76 0,32.8 -13.6,13.6 13.6,13.6"
           id="path3896"
           style="font-size:160px;font-family:Karnivore Lite;-inkscape-font-specification:Karnivore Lite Bold" />
        <path
           d="m 508.02951,897.27286 78.88,0 0,-31.84 -78.88,0 0,31.84 m 95.04,-38.24 0,102.56 -16.16,0 0,-48 -78.88,0 0,48 -16.16,0 0,-102.56 9.6,-9.76 92,0 9.6,9.76"
           id="path3898"
           style="font-size:160px;font-family:Karnivore Lite;-inkscape-font-specification:Karnivore Lite Bold" />
      </g>
    </g>
  </g>
</svg>
